<?xml version="1.0" encoding="UTF-8"?><svg id="Layer_1" xmlns="http://www.w3.org/2000/svg" viewBox="0 0 566.92913 136.86242"><g id="Yoco-logo"><path class="cls-1" d="M52.90811,94.454L0,4.72825h50.60836l25.04249,45.6416h1.58198L102.45785,4.69057h49.54973l-52.90824,89.76343v37.67923h-46.23983l.0486-37.67923Z"></path><path class="cls-1" d="M138.61637,68.43729C138.61637,25.84768,166.82242,0,211.6262,0s73.01117,25.84768,73.01117,68.43729-28.21927,68.42514-73.01117,68.42514-73.00984-25.83554-73.00984-68.42514ZM239.61436,68.43729c0-18.75153-10.58751-29.48999-27.98815-29.48999s-27.86535,10.73846-27.86535,29.48999,10.40395,29.47744,27.86535,29.47744,28.02382-10.73846,28.02382-29.47744h-.03567Z"></path><path class="cls-1" d="M292.01837,68.79597c0-42.5896,29.4488-67.70877,73.01119-67.70877,21.34271,0,36.32267,5.27504,48.13836,12.19532v42.95383h-.35394c-14.45562-10.04764-26.97656-15.83768-42.49133-15.83768-18.69093,0-32.08873,10.04777-32.08873,28.03307,0,18.56307,13.75041,27.84461,31.90648,27.84461,16.04963,0,28.9245-5.63924,42.67358-16.01346h.35394v43.49384c-9.73571,5.82769-26.77053,12.00693-48.49096,12.00693-44.98737.0132-72.65858-24.37809-72.65858-66.96769Z"></path><path class="cls-1" d="M420.90946,68.43729c0-42.5896,28.20607-68.43729,73.00984-68.43729s73.00984,25.84768,73.00984,68.43729-28.20607,68.42514-73.00984,68.42514-73.00984-25.83554-73.00984-68.42514ZM521.90616,68.43729c0-18.75153-10.57433-29.48999-27.98686-29.48999s-27.85346,10.73846-27.85346,29.48999,10.40397,29.47744,27.85346,29.47744,28.02382-10.73846,28.02382-29.47744h-.03696Z"></path></g></svg>
